# xmcd
#
# Track frame offsets:
#	150
#	24967
#	42390
#	58430
#	79407
#	97305
#	116045
#	136215
#	156175
#	178127
#	197017
#	215487
#	234082
#	257482
#	278182
#	303582
#	328132
#
# Disc length: 4636 seconds
#
# Revision: 1
# Processed by: cddbd v1.5.2PL0 Copyright (c) Steve Scherf et al.
# Submitted via: EZCDAudioConverter 5.0.1.1
#
DISCID=fd121a11
DTITLE=Big Country - Through a Big Country: Greatest Hits
DYEAR=1996
DGENRE=Country
TTITLE0=Save Me
TTITLE1=In a Big Country
TTITLE2=Fields of Fire
TTITLE3=Chance
TTITLE4=Wonderland
TTITLE5=Where the Rose is Sown
TTITLE6=Just a Shadow
TTITLE7=Look Away
TTITLE8=King of Emotion
TTITLE9=East of Eden
TTITLE10=One Great Thing
TTITLE11=The Teacher
TTITLE12=Broken Heart (Thirteen Valleys)
TTITLE13=Peace in Our Time
TTITLE14=Eiledon
TTITLE15=The Seer
TTITLE16=Harvest Home
EXTD=
EXTT0=
EXTT1=
EXTT2=
EXTT3=
EXTT4=
EXTT5=
EXTT6=
EXTT7=
EXTT8=
EXTT9=
EXTT10=
EXTT11=
EXTT12=
EXTT13=
EXTT14=
EXTT15=
EXTT16=
PLAYORDER=
